/* XPM */
static char * boss_xpm[] = {
"40 20 12 1",
" 	c None",
".	c #000000",
"+	c #FC54FC",
"@	c #A800A8",
"#	c #A8A8A8",
"$	c #545454",
"%	c #FC5454",
"&	c #A80000",
"*	c #FCFCFC",
"=	c #00A8A8",
"-	c #54FCFC",
";	c #FCFC54",
"....$#$.......*#&%%%%%%%&#*.............",
"....#$#.......*$#&&=-=&&#$*.............",
"..............*.$#=-;-=#$.*.............",
"..............+...........+.............",
"..............@...........@.............",
"..............+...........+.............",
"..............@...........@.............",
"..............+...........+.............",
"..............@...........@.............",
"..............+...........+.............",
"..............@...........@.............",
"..............+...........+.............",
"..............@...........@.............",
"..............+...........+.............",
"..............@...........@.............",
"..............+...........+.............",
"..............@...........@.............",
"..............+...........+.............",
"..............@...........@.............",
"..............+...........+............."};
