/* XPM */
static char * ending_xpm[] = {
"40 20 12 1",
" 	c None",
".	c #000000",
"+	c #A8A8A8",
"@	c #5454FC",
"#	c #0000A8",
"$	c #545454",
"%	c #54FC54",
"&	c #FCFCFC",
"*	c #00A8A8",
"=	c #54FCFC",
"-	c #00A800",
";	c #A80000",
"...###@@............+&&.................",
"...#..$@...........-%%@@................",
"...#..$@...........#%@@@................",
"...#..$@...........#@%%@................",
"...#..$@...........#@%@@................",
"....##@.............+&&.................",
"..####@@@@..............................",
"..#@##@;#@..............................",
"..#@##@@#@...+++++++++++++++++++........",
"..#@##@@#@...+++++++++++$.&&.+++........",
"..#@##@@#@...++.........$..$..++........",
"..#@##@@#@...+.................+........",
"..*=#@#@*=...+.................+........",
"....#@#@.....+...............+++........",
"....#@#@.....++............+++++........",
"....#@#@.....++++$$$+++++$$$++++........",
"....*=*=................................",
"....$+$+................................",
"........................................",
"........................................"};
