/* XPM */
static char * missile_xpm[] = {
"40 20 17 1",
" 	c None",
".	c #000000",
"+	c #A8A8A8",
"@	c #FCFCFC",
"#	c #FCFC54",
"$	c #5454FC",
"%	c #A80000",
"&	c #545454",
"*	c #00A800",
"=	c #A85400",
"-	c #FC5454",
";	c #00A8A8",
">	c #54FC54",
",	c #0000A8",
"'	c #A800A8",
")	c #54FCFC",
"!	c #FC54FC",
".,*;#'=+&$>)-!#@........................",
"........................................",
"........................................",
"........................................",
"........................................",
"........................................",
"........................................",
"....+..........@@%...$.$...##-..........",
"....+..........@@@....$....-#&..........",
"....+...................................",
"...%%%.........*>*...;==...++%..........",
"....#..........*>*...;==...%+...........",
"........................................",
".........+......#....-@@...&&...........",
".........+.....#.#...-++....&&..........",
".........#..............................",
"..............$$$.......................",
".............+@@@+......................",
"............++@+@++.....................",
"...............#........................"};
