/* XPM */
static char * opener_xpm[] = {
"40 20 15 1",
" 	c None",
".	c #0000A8",
"+	c #54FCFC",
"@	c #00A8A8",
"#	c #FC5454",
"$	c #000000",
"%	c #A8A8A8",
"&	c #FCFCFC",
"*	c #545454",
"=	c #00FCFC",
"-	c #FCFC00",
";	c #A80000",
">	c #0000FC",
",	c #FC0000",
"'	c #00A800",
"...+...+.+++.@##@@###@#@@@#@##@@##@#@@@#",
"+.++.+.+..+..@#@#@#@#@##@##@#@#@#@@##@##",
"+.++.+.+.+.+.@##@@#@#@#@#@#@##@@##@#@#@#",
"+.++.+.+.+++.@#@#@#@#@#@@@#@#@#@#@@#@@@#",
"+.++...+.+++.@##@@###@#@@@#@##@@##@#@@@#",
"$$$$$$$$$$$$$$$$$$$$$$$$$$$$$$$$$$$$$$$$",
"$$$$$$$$$$$$$$$$$$$$$$$$$%$$$$$$$$$$%$$$",
"$$$%$$$$$$$&$$$$$$$$$$$$$$$$$$$*$$$$$$$$",
"$$$$$$$$$$$$$$$$$$$$$$$$$$$$$$$$$$$$$$$$",
"$$$$$%$$$$$$$$$$*$$$$$$$$$$$$&$$$$$$$$$$",
"$$$$$%%$$$$$$$$$$$$$$$%$$$$$$$$$$$$$=$$$",
"$-$$$%%%$$$$$$$$$$$$$$$$$$$$$$$$$$$$$=;;",
"$--->&&&&&&&&>>>$$$$$$$$$$$$$$$$$$$$$=,,",
"--;,.&;'.'.&&>>>>$$$$$$$$$$$$$$$$$$$=$,,",
"$--,>&;'.'.&&>>>>>$$$$$$;$$$$$$$$$$$$$,,",
"$$$-.%%%%%%%%&&&&&&$$$$-%%%%$$$$$$$$$$,,",
"$$$$$$$$$$$$$$$$$$$$$$$$;$$$$$$$$&$$$$;;",
"$$$$*$$$$$%$$$$$$$$$$$$$$$$$$$$$$$$$$$$$",
"$&$$$$$$$$$$$$$$$&$$$$$$$$$*$$$$$$$$$$$$",
"$$$$$$$$$$$$$$$$$$$$$$$$$$$$$$$$$$$$$$%$"};
