/* XPM */
static char * phobos_xpm[] = {
"40 20 10 1",
" 	c None",
".	c #000000",
"+	c #FC0000",
"@	c #FCFCFC",
"#	c #A80000",
"$	c #A8A8A8",
"%	c #00A8A8",
"&	c #A85400",
"*	c #545454",
"=	c #00FCFC",
"........................................",
"..................$.....................",
"....................................@...",
"........................................",
".....$@@@@..............................",
"....#++++++..............@..............",
"...#+++++#++............................",
"...#++++++++............................",
"...#+++#++++.....*&.....................",
"...#++++++++.....&......................",
"...#+++++#++...................@........",
"....#++++++...............$.............",
".....$@@@@..............................",
"........................................",
"........................................",
"...@.............$............$.........",
"........................................",
".%=%....................................",
"........................................",
"........................................"};
