/* XPM */
static char * tom_xpm[] = {
"40 20 9 1",
" 	c None",
".	c #000000",
"+	c #0000A8",
"@	c #0000FC",
"#	c #545454",
"$	c #00A8A8",
"%	c #00FCFC",
"&	c #A8A8A8",
"*	c #FC0000",
"...+++@@................................",
"...+..#@................................",
"...+..#@................................",
"...+..#@................................",
"...+..#@................................",
"....++@.................................",
"..++++@@@@..............................",
"..+@++@*+@..............................",
"..+@++@@+@..............................",
"..+@++@@+@..............................",
"..+@++@@+@..............................",
"..+@++@@+@..............................",
"..$%+@+@$%..............................",
"....+@+@................................",
"....+@+@................................",
"....+@+@................................",
"....$%$%................................",
"....#&#&................................",
"........................................",
"........................................"};
