/* XPM */
static char * vince_minimal_xpm[] = {
"16 20 5 1",
" 	c None",
".	c #000000",
"+	c #A8A8A8",
"@	c #545454",
"#	c #FCFCFC",
"..@########@....",
".@+####+####++..",
"@+++++@+#++###+.",
"+@.@+++########@",
"+.@############+",
"@.+#######+#++@@",
"@@#########@@.@+",
"@+####+###+.@.@+",
"+@@+#@.@+#+....@",
".+.@#..@.@#@...@",
".+@+#@..+##+...+",
".#@###++####...+",
".#+@@+#####@@@++",
".##@.+####+.+++.",
".##+@++###+.++@.",
".++.@..++..#@+..",
".@##@##+..@++@..",
"..#+++#++@@#+...",
"..+####@@.@#@...",
"...@@.....+#@..."};
