/* XPM */
static char * vmwsoft_xpm[] = {
"40 20 17 1",
" 	c None",
".	c #000000",
"+	c #0000A8",
"@	c #00A800",
"#	c #00A8A8",
"$	c #A80000",
"%	c #A800A8",
"&	c #A85400",
"*	c #A8A8A8",
"=	c #545454",
"-	c #5454FC",
";	c #54FC54",
">	c #54FCFC",
",	c #FC5454",
"'	c #FC54FC",
")	c #FCFC54",
"!	c #FCFCFC",
"........................................",
"........................................",
"........................................",
"........................................",
"........................................",
"........................................",
"........$$$$$$$@+++++++@+++++++.........",
"........$$$$$$$@+++++++@+++++++.........",
".........$$$$$@@@+++++@@@+++++..........",
".........$$$$$@@@+++++@@@+++++..........",
"..........$$$@@@@@+++@@@@@+++...........",
"..........$$$@@@@@+++@@@@@+++...........",
"...........$@@@@@@@+@@@@@@@+............",
"...........$@@@@@@@+@@@@@@@+............",
"........................................",
"........................................",
"........................................",
"........................................",
"........................................",
"........................................"};
